<svg width="28" height="50" viewBox="0 0 28 50" fill="none" xmlns="http://www.w3.org/2000/svg">
    <rect x="13" y="28" width="2" height="14" fill="#EF7F1A"/>
    <rect width="28" height="28" rx="14" fill="#EF7F1A"/>
    <path fill-rule="evenodd" clip-rule="evenodd" d="M8.16797 12.7628C8.16797 9.49683 10.7713 6.83398 14.0013 6.83398C17.2313 6.83398 19.8346 9.49683 19.8346 12.7628C19.8346 14.3396 19.3853 16.0326 18.5909 17.4952C17.7976 18.9561 16.6384 20.2255 15.1883 20.9032C14.435 21.2553 13.5676 21.2553 12.8143 20.9032C11.3642 20.2255 10.205 18.9561 9.41167 17.4952C8.61732 16.0326 8.16797 14.3396 8.16797 12.7628ZM14.0013 7.83398C11.3403 7.83398 9.16797 10.0323 9.16797 12.7628C9.16797 14.1609 9.56972 15.6909 10.2904 17.018C11.0121 18.3468 12.032 19.4337 13.2377 19.9973C13.7227 20.224 14.2799 20.224 14.7649 19.9973C15.9706 19.4337 16.9905 18.3468 17.7122 17.018C18.4329 15.6909 18.8346 14.1609 18.8346 12.7628C18.8346 10.0323 16.6623 7.83398 14.0013 7.83398ZM14.0013 11.1673C13.1729 11.1673 12.5013 11.8389 12.5013 12.6673C12.5013 13.4957 13.1729 14.1673 14.0013 14.1673C14.8297 14.1673 15.5013 13.4957 15.5013 12.6673C15.5013 11.8389 14.8297 11.1673 14.0013 11.1673ZM11.5013 12.6673C11.5013 11.2866 12.6206 10.1673 14.0013 10.1673C15.382 10.1673 16.5013 11.2866 16.5013 12.6673C16.5013 14.048 15.382 15.1673 14.0013 15.1673C12.6206 15.1673 11.5013 14.048 11.5013 12.6673Z" fill="#FDD3DE"/>
    <g filter="url(#filter0_f_9632_87769)">
        <ellipse cx="14" cy="44.5" rx="10" ry="1.5" fill="#F62559" fill-opacity="0.37"/>
    </g>
    <defs>
        <filter id="filter0_f_9632_87769" x="0" y="39" width="28" height="11" filterUnits="userSpaceOnUse" color-interpolation-filters="sRGB">
            <feFlood flood-opacity="0" result="BackgroundImageFix"/>
            <feBlend mode="normal" in="SourceGraphic" in2="BackgroundImageFix" result="shape"/>
            <feGaussianBlur stdDeviation="2" result="effect1_foregroundBlur_9632_87769"/>
        </filter>
    </defs>
</svg>