<svg width="26" height="61" viewBox="0 0 26 61" fill="none" xmlns="http://www.w3.org/2000/svg">
    <path d="M24.9577 0.0423338V59.9577H1.04233V0.0423338H24.9577Z" fill="#CB9B81" stroke="white" stroke-width="0.0846676"/>
    <path d="M25 31.6689C21.0162 46.3229 17.1296 53.4871 12.9514 60H1V0H25V31.6689Z" fill="#DCA98C"/>
    <path d="M25 0C19.2478 34.5183 6.66802 54.3284 1 60V0H25Z" fill="#E1AF93"/>
    <path d="M15 0C12.8389 14.9825 4.47651 35.5322 1 42V0H15Z" fill="#DCA98C"/>
    <path d="M6 0C4.18182 9.17797 4.09091 10.4661 1 19V0H6Z" fill="#CB9B81"/>
    <path d="M1 60C6.66802 54.3284 19.2478 34.5183 25 0" stroke="white" stroke-width="0.0846676"/>
    <path d="M1 20C4.09091 11.0169 4.18182 9.66102 6 0" stroke="white" stroke-width="0.0846676"/>
    <path d="M13 60C17.1613 53.5632 21.0323 46.4828 25 32" stroke="white" stroke-width="0.0846676"/>
    <path d="M1 42C4.47651 35.5322 12.8389 14.9825 15 0" stroke="white" stroke-width="0.0846676"/>
</svg>
